HIERARCHY
ROOT hip
{
	OFFSET 0.000000 0.000000 0.000000
	CHANNELS 6 Xposition Yposition Zposition Xrotation Zrotation Yrotation 
	JOINT abdomen
	{
		OFFSET 0.000000 3.422050 0.000000
		CHANNELS 3 Xrotation Zrotation Yrotation 
		JOINT chest
		{
			OFFSET 0.000000 8.486693 -0.684411
			CHANNELS 3 Xrotation Zrotation Yrotation 
			JOINT neck
			{
				OFFSET 0.000000 10.266162 -0.273764
				CHANNELS 3 Xrotation Zrotation Yrotation 
				JOINT head
				{
					OFFSET 0.000000 3.148285 0.000000
					CHANNELS 3 Xrotation Zrotation Yrotation 
					End Site
					{
						OFFSET 0.000000 3.148289 0.000000
					}
				}
			}
			JOINT lCollar
			{
				OFFSET 3.422053 6.707223 -0.821293
				CHANNELS 3 Yrotation Zrotation Xrotation 
				JOINT lShldr
				{
					OFFSET 3.285171 0.000000 0.000000
					CHANNELS 3 Zrotation Yrotation Xrotation 
					JOINT lForeArm
					{
						OFFSET 10.129278 0.000000 0.000000
						CHANNELS 3 Yrotation Zrotation Xrotation 
						JOINT lHand
						{
							OFFSET 8.486692 0.000000 0.000000
							CHANNELS 3 Zrotation Yrotation Xrotation 
							End Site
							{
								OFFSET 4.106464 0.000000 0.000000
							}
						}
					}
				}
			}
			JOINT rCollar
			{
				OFFSET -3.558935 6.707223 -0.821293
				CHANNELS 3 Yrotation Zrotation Xrotation 
				JOINT rShldr
				{
					OFFSET -3.148289 0.000000 0.000000
					CHANNELS 3 Zrotation Yrotation Xrotation 
					JOINT rForeArm
					{
						OFFSET -10.266159 0.000000 0.000000
						CHANNELS 3 Yrotation Zrotation Xrotation 
						JOINT rHand
						{
							OFFSET -8.349810 0.000000 0.000000
							CHANNELS 3 Zrotation Yrotation Xrotation 
							End Site
							{
								OFFSET -4.106464 0.000000 0.000000
							}
						}
					}
				}
			}
		}
	}
	JOINT lThigh
	{
		OFFSET 5.338403 -1.642589 1.368821
		CHANNELS 3 Xrotation Zrotation Yrotation 
		JOINT lShin
		{
			OFFSET -2.053232 -20.121670 0.000000
			CHANNELS 3 Xrotation Zrotation Yrotation 
			JOINT lFoot
			{
				OFFSET 0.000000 -19.300380 -1.231939
				CHANNELS 3 Xrotation Yrotation Zrotation 
				End Site
				{
					OFFSET 0.000000 -2.463878 4.653993
				}
			}
		}
	}
	JOINT rThigh
	{
		OFFSET -5.338403 -1.642589 1.368821
		CHANNELS 3 Xrotation Zrotation Yrotation 
		JOINT rShin
		{
			OFFSET 2.053232 -20.121670 0.000000
			CHANNELS 3 Xrotation Zrotation Yrotation 
			JOINT rFoot
			{
				OFFSET 0.000000 -19.300380 -1.231939
				CHANNELS 3 Xrotation Yrotation Zrotation 
				End Site
				{
					OFFSET 0.000000 -2.463878 4.653993
				}
			}
		}
	}
}
MOTION
Frames: 9
Frame Time: 0.033264
0.000000 7.522690 0.000000 -48.026028 0.432040 -1.982361 31.473249 -13.331899 0.837377 25.382343 5.609522 -3.063071 15.358298 15.817346 -12.106943 -24.333502 9.996986 9.000123 12.818349 -14.306571 -3.182500 -58.918037 -1.490264 -4.198714 -16.721472 9.920465 -22.008644 31.079367 9.632678 59.290344 28.904747 -6.407105 -5.471081 -10.008028 42.136082 -25.320244 16.255955 9.696267 -61.629158 19.400455 16.273470 -19.588913 -24.200228 38.210922 90.442467 92.245514 -4.893553 -5.051108 59.675430 11.651778 -55.361794 -90.405777 -20.052402 -6.606799 96.559227 -7.353359 1.707714 39.493183 1.618549 20.357464 
0.000000 7.522690 0.000000 -48.026028 0.432040 -1.982361 31.473249 -13.331899 0.837377 25.382343 5.609522 -3.063071 15.398725 15.891018 -12.163298 -24.333502 9.996986 9.000123 12.818349 -14.306571 -3.182500 -58.918037 -1.490264 -4.198714 -16.721472 9.920465 -22.008644 31.079367 9.632678 59.290344 28.904747 -6.407105 -5.471081 -10.008028 42.136082 -25.320244 16.412008 9.578244 -61.232525 18.878412 16.382877 -19.814602 -24.200228 38.210922 90.442467 92.245514 -4.893553 -5.051108 59.675430 11.651778 -55.361794 -90.405777 -20.052402 -6.606799 96.559227 -7.353359 1.707714 39.493183 1.618549 20.357464 
0.000000 7.522690 0.000000 -48.026028 0.432040 -1.982361 31.473249 -13.331899 0.837377 25.382343 5.609522 -3.063071 15.439081 15.964712 -12.219606 -24.333502 9.996986 9.000123 12.818349 -14.306571 -3.182500 -58.918037 -1.490264 -4.198714 -16.721472 9.920465 -22.008644 31.079367 9.632678 59.290344 28.904747 -6.407105 -5.471081 -10.008028 42.136082 -25.320244 16.569096 9.461094 -60.835041 18.354528 16.490528 -20.041929 -24.200228 38.210922 90.442467 92.245514 -4.893553 -5.051108 59.675430 11.651778 -55.361794 -90.405777 -20.052402 -6.606799 96.559227 -7.353359 1.707714 39.493183 1.618549 20.357464 
0.000000 7.522690 0.000000 -48.026028 0.432040 -1.982361 31.473249 -13.331899 0.837377 25.382343 5.609522 -3.063071 15.479374 16.038437 -12.275875 -24.333502 9.996986 9.000123 12.818349 -14.306571 -3.182500 -58.918037 -1.490264 -4.198714 -16.721472 9.920465 -22.008644 31.079367 9.632678 59.290344 28.904747 -6.407105 -5.471081 -10.008028 42.136082 -25.320244 16.727213 9.344831 -60.436710 17.828835 16.596397 -20.270870 -24.200228 38.210922 90.442467 92.245514 -4.893553 -5.051108 59.675430 11.651778 -55.361794 -90.405777 -20.052402 -6.606799 96.559227 -7.353359 1.707714 39.493183 1.618549 20.357464 
0.000000 7.522690 0.000000 -48.026028 0.432040 -1.982361 31.473249 -13.331899 0.837377 25.382343 5.609522 -3.063071 15.519597 16.112183 -12.332098 -24.333502 9.996986 9.000123 12.818349 -14.306571 -3.182500 -58.918037 -1.490264 -4.198714 -16.721472 9.920465 -22.008644 31.079367 9.632678 59.290344 28.904747 -6.407105 -5.471081 -10.008028 42.136082 -25.320244 16.886345 9.229477 -60.037563 17.301348 16.700453 -20.501408 -24.200228 38.210922 90.442467 92.245514 -4.893553 -5.051108 59.675430 11.651778 -55.361794 -90.405777 -20.052402 -6.606799 96.559227 -7.353359 1.707714 39.493183 1.618549 20.357464 
0.000000 7.522690 0.000000 -48.026028 0.432040 -1.982361 31.473249 -13.331899 0.837377 25.382343 5.609522 -3.063071 15.559755 16.185957 -12.388282 -24.333502 9.996986 9.000123 12.818349 -14.306571 -3.182500 -58.918037 -1.490264 -4.198714 -16.721472 9.920465 -22.008644 31.079367 9.632678 59.290344 28.904747 -6.407105 -5.471081 -10.008028 42.136082 -25.320244 17.046488 9.115037 -59.637577 16.772097 16.802670 -20.733521 -24.200228 38.210922 90.442467 92.245514 -4.893553 -5.051108 59.675430 11.651778 -55.361794 -90.405777 -20.052402 -6.606799 96.559227 -7.353359 1.707714 39.493183 1.618549 20.357464 
0.000000 7.522690 0.000000 -48.026028 0.432040 -1.982361 31.473249 -13.331899 0.837377 25.382343 5.609522 -3.063071 15.599845 16.259754 -12.444420 -24.333502 9.996986 9.000123 12.818349 -14.306571 -3.182500 -58.918037 -1.490264 -4.198714 -16.721472 9.920465 -22.008644 31.079367 9.632678 59.290344 28.904747 -6.407105 -5.471081 -10.008028 42.136082 -25.320244 17.207634 9.001530 -59.236782 16.241098 16.903019 -20.967190 -24.200228 38.210922 90.442467 92.245514 -4.893553 -5.051108 59.675430 11.651778 -55.361794 -90.405777 -20.052402 -6.606799 96.559227 -7.353359 1.707714 39.493183 1.618549 20.357464 
0.000000 7.522690 0.000000 -48.026028 0.432040 -1.982361 31.473249 -13.331899 0.837377 25.382343 5.609522 -3.063071 15.639868 16.333578 -12.500520 -24.333502 9.996986 9.000123 12.818349 -14.306571 -3.182500 -58.918037 -1.490264 -4.198714 -16.721472 9.920465 -22.008644 31.079367 9.632678 59.290344 28.904747 -6.407105 -5.471081 -10.008028 42.136082 -25.320244 17.369774 8.888970 -58.835182 15.708386 17.001480 -21.202394 -24.200228 38.210922 90.442467 92.245514 -4.893553 -5.051108 59.675430 11.651778 -55.361794 -90.405777 -20.052402 -6.606799 96.559227 -7.353359 1.707714 39.493183 1.618549 20.357464 
0.000000 7.522690 0.000000 -48.026028 0.432040 -1.982361 31.473249 -13.331899 0.837377 25.382343 5.609522 -3.063071 15.679819 16.407423 -12.556571 -24.333502 9.996986 9.000123 12.818349 -14.306571 -3.182500 -58.918037 -1.490264 -4.198714 -16.721472 9.920465 -22.008644 31.079367 9.632678 59.290344 28.904747 -6.407105 -5.471081 -10.008028 42.136082 -25.320244 17.532904 8.777373 -58.432796 15.173981 17.098017 -21.439106 -24.200228 38.210922 90.442467 92.245514 -4.893553 -5.051108 59.675430 11.651778 -55.361794 -90.405777 -20.052402 -6.606799 96.559227 -7.353359 1.707714 39.493183 1.618549 20.357464 
